<svg width="208" height="171" viewBox="0 0 208 171" fill="none" xmlns="http://www.w3.org/2000/svg">
<g clip-path="url(#clip0)">
<path d="M63.4961 170H59.5605V154.715H54.5205V151.439H68.5361V154.715H63.4961V170ZM76.6281 159.679H77.8977C79.1418 159.679 80.0601 159.471 80.6525 159.057C81.245 158.642 81.5412 157.99 81.5412 157.102C81.5412 156.221 81.2365 155.595 80.6271 155.223C80.0262 154.85 79.091 154.664 77.8215 154.664H76.6281V159.679ZM76.6281 162.878V170H72.6926V151.439H78.1008C80.6229 151.439 82.4891 151.901 83.6994 152.823C84.9097 153.737 85.5148 155.13 85.5148 157C85.5148 158.092 85.2144 159.065 84.6135 159.92C84.0126 160.766 83.162 161.431 82.0617 161.913C84.8547 166.086 86.6743 168.781 87.5207 170H83.1535L78.7229 162.878H76.6281ZM91.1566 170V151.439H95.0922V170H91.1566ZM101.064 170V151.439H105V166.75H112.528V170H101.064ZM117.065 170V151.439H121.001V166.75H128.529V170H117.065ZM149.913 160.694C149.913 163.767 149.151 166.128 147.628 167.778C146.104 169.429 143.921 170.254 141.077 170.254C138.233 170.254 136.05 169.429 134.526 167.778C133.003 166.128 132.241 163.758 132.241 160.669C132.241 157.58 133.003 155.223 134.526 153.598C136.058 151.964 138.25 151.147 141.103 151.147C143.955 151.147 146.134 151.968 147.641 153.61C149.156 155.252 149.913 157.614 149.913 160.694ZM136.367 160.694C136.367 162.768 136.761 164.329 137.548 165.379C138.335 166.428 139.511 166.953 141.077 166.953C144.217 166.953 145.787 164.867 145.787 160.694C145.787 156.513 144.226 154.423 141.103 154.423C139.537 154.423 138.356 154.952 137.561 156.01C136.765 157.059 136.367 158.621 136.367 160.694Z" fill="#EB2F64"/>
<path d="M86.9359 129.443L140.337 36.9494L193.739 129.443H86.9359Z" stroke="#EB2F64" stroke-width="6"/>
<path d="M17.0311 129.506L88.3373 6L159.644 129.506H17.0311Z" stroke="#EB2F64" stroke-width="6"/>
</g>
<defs>
<clipPath id="clip0">
<rect width="208" height="171" fill="white"/>
</clipPath>
</defs>
</svg>
